subject_04
version=1
nRows=317
nColumns=3
inDegrees=yes
endheader
time	r_shoulder_elev	r_elbow_flex
55.2900	18.842916	22.259571
55.3000	18.842916	21.848060
55.3100	18.842916	21.187889
55.3200	18.842916	20.417243
55.3300	18.842916	19.744670
55.3400	18.842916	19.355579
55.3500	18.842916	19.325450
55.3600	18.842916	19.582260
55.3700	18.842916	19.937795
55.3800	18.842916	20.174093
55.3900	18.842916	20.143888
55.4000	18.842916	19.836548
55.4100	18.842916	19.377768
55.4200	18.842916	18.963917
55.4300	18.842916	18.764191
55.4400	18.842916	18.839241
55.4500	18.842916	19.115986
55.4600	18.842916	19.429488
55.4700	18.842916	19.609157
55.4800	18.842916	19.565565
55.4900	18.842916	19.331525
55.5000	18.842916	19.038755
55.5100	18.842916	18.845456
55.5200	18.842916	18.852512
55.5300	18.842916	19.052095
55.5400	18.842916	19.334484
55.5500	18.842916	19.547973
55.5600	18.842916	19.579119
55.5700	18.842916	19.410813
55.5800	18.842916	19.128344
55.5900	18.842916	18.871859
55.6000	18.842916	18.761937
55.6100	18.842916	18.838464
55.6200	18.842916	19.044747
55.6300	18.842916	19.263559
55.6400	18.842916	19.383604
55.6500	18.842916	19.358961
55.6600	18.842916	19.228984
55.6700	18.842916	19.088953
55.6800	18.842916	19.029749
55.6900	18.842916	19.081561
55.7000	18.842916	19.195409
55.7100	18.842916	19.273909
55.7200	18.842916	19.234152
55.7300	18.842916	19.066120
55.7400	18.842916	18.850845
55.7500	18.842916	18.723974
55.7600	18.842916	18.801189
55.7700	18.842916	19.105304
55.7800	18.842916	19.537193
55.7900	18.842916	19.911692
55.8000	18.842916	20.045399
55.8100	18.842916	19.853877
55.8200	18.842916	19.407286
55.8300	18.842916	18.911696
55.8400	18.842916	18.619874
55.8500	18.842916	18.712039
55.8600	18.842916	19.204622
55.8700	18.842916	19.933781
55.8800	18.842916	20.624931
55.8900	18.842916	21.017310
55.9000	18.842916	20.984723
55.9100	18.842916	20.594472
55.9200	18.842916	20.075980
55.9300	18.842916	19.714281
55.9400	18.842916	19.719676
55.9500	18.842916	20.135573
55.9600	18.842916	20.826862
55.9700	18.842916	21.551236
55.9800	18.842916	22.075970
55.9900	18.842916	22.282469
56.0000	18.842916	22.209784
56.0100	18.842916	22.020736
56.0200	18.842916	21.913075
56.0300	18.842916	22.023442
56.0400	18.842916	22.371727
56.0500	18.842916	22.869224
56.0600	18.842916	23.379547
56.0700	18.842916	23.795118
56.0800	18.842916	24.087344
56.0900	18.842916	24.306606
56.1000	18.842916	24.537861
56.1100	18.842916	24.842103
56.1200	18.842916	25.219875
56.1300	18.842916	25.617761
56.1400	18.842916	25.971821
56.1500	18.842916	26.258995
56.1600	18.842916	26.522262
56.1700	18.842916	26.850800
56.1800	18.842916	27.324141
56.1900	18.842916	27.952946
56.2000	18.842916	28.654438
56.2100	18.842916	29.283277
56.2200	18.842916	29.707313
56.2300	18.842916	29.889423
56.2400	18.842916	29.928154
56.2500	18.842916	30.027660
56.2600	18.842916	30.403785
56.2700	18.842916	31.169506
56.2800	18.842916	32.259200
56.2900	18.842916	33.436921
56.3000	18.842916	34.394030
56.3100	18.842916	34.895334
56.3200	18.842916	34.904035
56.3300	18.842916	34.620585
56.3400	18.842916	34.408705
56.3500	18.842916	34.636092
56.3600	18.842916	35.501294
56.3700	18.842916	36.929258
56.3800	18.842916	38.589280
56.3900	18.842916	40.032849
56.4000	18.842916	40.891728
56.4100	18.842916	41.046166
56.4200	18.842916	40.684760
56.4300	18.842916	40.226424
56.4400	18.842916	40.138363
56.4500	18.842916	40.732048
56.4600	18.842916	42.029195
56.4700	18.842916	43.757098
56.4800	18.842916	45.473097
56.4900	18.842916	46.759544
56.5000	18.842916	47.400511
56.5100	18.842916	47.462831
56.5200	18.842916	47.250295
56.5300	18.842916	47.158256
56.5400	18.842916	47.499020
56.5500	18.842916	48.377142
56.5600	18.842916	49.665847
56.5700	18.842916	51.086447
56.5800	18.842916	52.345910
56.5900	18.842916	53.265226
56.6000	18.842916	53.841577
56.6100	18.842916	54.223200
56.6200	18.842916	54.618399
56.6300	18.842916	55.188787
56.6400	18.842916	55.979176
56.6500	18.842916	56.913718
56.6600	18.842916	57.852924
56.6700	18.842916	58.677006
56.6800	18.842916	59.351058
56.6900	18.842916	59.940247
56.7000	18.842916	60.570389
56.7100	18.842916	61.356841
56.7200	18.842916	62.339094
56.7300	18.842916	63.453942
56.7400	18.842916	64.559995
56.7500	18.842916	65.501348
56.7600	18.842916	66.180218
56.7700	18.842916	66.605243
56.7800	18.842916	66.894027
56.7900	18.842916	67.229152
56.8000	18.842916	67.786489
56.8100	18.842916	68.665229
56.8200	18.842916	69.847128
56.8300	18.842916	71.200009
56.8400	18.842916	72.523468
56.8500	18.842916	73.619614
56.8600	18.842916	74.363573
56.8700	18.842916	74.749291
56.8800	18.842916	74.894861
56.8900	18.842916	75.005003
56.9000	18.842916	75.302413
56.9100	18.842916	75.950383
56.9200	18.842916	76.993082
56.9300	18.842916	78.335381
56.9400	18.842916	79.771664
56.9500	18.842916	81.056048
56.9600	18.842916	81.990456
56.9700	18.842916	82.498444
56.9800	18.842916	82.655823
56.9900	18.842916	82.664299
57.0000	18.842916	82.776299
57.0100	18.842916	83.199357
57.0200	18.842916	84.017903
57.0300	18.842916	85.164136
57.0400	18.842916	86.449683
57.0500	18.842916	87.644164
57.0600	18.842916	88.566929
57.0700	18.842916	89.153198
57.0800	18.842916	89.468135
57.0900	18.842916	89.666308
57.1000	18.842916	89.918381
57.1100	18.842916	90.340209
57.1200	18.842916	90.955688
57.1300	18.842916	91.706224
57.1400	18.842916	92.496085
57.1500	18.842916	93.246244
57.1600	18.842916	93.927800
57.1700	18.842916	94.559802
57.1800	18.842916	95.177466
57.1900	18.842916	95.793555
57.2000	18.842916	96.378965
57.2100	18.842916	96.876425
57.2200	18.842916	97.240655
57.2300	18.842916	97.480860
57.2400	18.842916	97.677499
57.2500	18.842916	97.957786
57.2600	18.842916	98.437249
57.2700	18.842916	99.155520
57.2800	18.842916	100.041487
57.2900	18.842916	100.930880
57.3000	18.842916	101.633581
57.3100	18.842916	102.021341
57.3200	18.842916	102.093300
57.3300	18.842916	101.984844
57.3400	18.842916	101.911705
57.3500	18.842916	102.073299
57.3600	18.842916	102.560656
57.3700	18.842916	103.313702
57.3800	18.842916	104.149510
57.3900	18.842916	104.848654
57.4000	18.842916	105.258092
57.4100	18.842916	105.360700
57.4200	18.842916	105.278057
57.4300	18.842916	105.206296
57.4400	18.842916	105.317916
57.4500	18.842916	105.678885
57.4600	18.842916	106.221741
57.4700	18.842916	106.786416
57.4800	18.842916	107.206070
57.4900	18.842916	107.392952
57.5000	18.842916	107.380476
57.5100	18.842916	107.301278
57.5200	18.842916	107.314495
57.5300	18.842916	107.521454
57.5400	18.842916	107.913925
57.5500	18.842916	108.381046
57.5600	18.842916	108.769724
57.5700	18.842916	108.965424
57.5800	18.842916	108.950470
57.5900	18.842916	108.809908
57.6000	18.842916	108.683556
57.6100	18.842916	108.691386
57.6200	18.842916	108.872797
57.6300	18.842916	109.171639
57.6400	18.842916	109.473204
57.6500	18.842916	109.670909
57.6600	18.842916	109.724711
57.6700	18.842916	109.678780
57.6800	18.842916	109.629493
57.6900	18.842916	109.663203
57.7000	18.842916	109.800628
57.7100	18.842916	109.981266
57.7200	18.842916	110.098552
57.7300	18.842916	110.066993
57.7400	18.842916	109.882719
57.7500	18.842916	109.640373
57.7600	18.842916	109.492102
57.7700	18.842916	109.566687
57.7800	18.842916	109.891138
57.7900	18.842916	110.359311
57.8000	18.842916	110.769850
57.8100	18.842916	110.919794
57.8200	18.842916	110.709157
57.8300	18.842916	110.202584
57.8400	18.842916	109.612856
57.8500	18.842916	109.209082
57.8600	18.842916	109.191280
57.8700	18.842916	109.592033
57.8800	18.842916	110.254211
57.8900	18.842916	110.898407
57.9000	18.842916	111.249683
57.9100	18.842916	111.163690
57.9200	18.842916	110.691981
57.9300	18.842916	110.055670
57.9400	18.842916	109.540998
57.9500	18.842916	109.367705
57.9600	18.842916	109.593066
57.9700	18.842916	110.095472
57.9800	18.842916	110.641600
57.9900	18.842916	111.000823
58.0000	18.842916	111.049634
58.0100	18.842916	110.817030
58.0200	18.842916	110.453822
58.0300	18.842916	110.147371
58.0400	18.842916	110.028095
58.0500	18.842916	110.114075
58.0600	18.842916	110.320686
58.0700	18.842916	110.519900
58.0800	18.842916	110.613106
58.0900	18.842916	110.577157
58.1000	18.842916	110.461201
58.1100	18.842916	110.341421
58.1200	18.842916	110.264580
58.1300	18.842916	110.216083
58.1400	18.842916	110.131894
58.1500	18.842916	109.946068
58.1600	18.842916	109.643005
58.1700	18.842916	109.279454
58.1800	18.842916	108.958512
58.1900	18.842916	108.766986
58.2000	18.842916	108.711753
58.2100	18.842916	108.695351
58.2200	18.842916	108.551968
58.2300	18.842916	108.131436
58.2400	18.842916	107.389069
58.2500	18.842916	106.430461
58.2600	18.842916	105.479570
58.2700	18.842916	104.777258
58.2800	18.842916	104.456320
58.2900	18.842916	104.456796
58.3000	18.842916	104.530679
58.3100	18.842916	104.343251
58.3200	18.842916	103.629072
58.3300	18.842916	102.329146
58.3400	18.842916	100.639391
58.3500	18.842916	98.939587
58.3600	18.842916	97.628900
58.3700	18.842916	96.941249
58.3800	18.842916	96.827501
58.3900	18.842916	96.963469
58.4000	18.842916	96.885187
58.4100	18.842916	96.192876
58.4200	18.842916	94.731232
58.4300	18.842916	92.662896
58.4400	18.842916	90.400357
58.4500	18.842916	88.426474
